<svg class="icon" viewBox="0 0 1027 1024" xmlns="http://www.w3.org/2000/svg" width="24.07" height="24"><defs><style/></defs><path d="M683.584 417.645c-14.672 0-26.566-11.896-26.566-26.566 0-100.027-81.62-181.4-181.944-181.4-14.672 0-26.566-11.896-26.566-26.566 0-14.672 11.896-26.566 26.566-26.566 129.628 0 235.076 105.216 235.076 234.532 0 14.67-11.895 26.566-26.566 26.566z"/><path d="M983.815 1001.462a27.38 27.38 0 01-19.064-7.686L741.083 778.344c-10.397-10.022-11.27-26.39-1.972-37.458 139.242-165.846 131.69-417.164-16.837-560.23-154.913-149.198-402.636-144.892-552.25 9.619C97.58 265.095 58.686 363.567 60.497 467.552c1.825 104 44.138 201.064 119.174 273.321 157.675 151.881 357.17 115.859 408.19 86.399 13.106-7.608 29.943-3.126 37.536 10.035 7.593 13.134 3.098 29.943-10.035 37.536-81.876 47.358-304.927 68.273-473.819-94.394C55.923 697.996 7.627 587.21 5.56 468.506c-2.079-118.69 42.314-231.073 124.995-316.467C301.19-24.177 583.715-29.074 760.4 141.08c162.964 156.976 177.384 427.72 36.788 615.005l205.691 198.11c10.92 10.533 11.256 27.92.724 38.854a27.399 27.399 0 01-19.788 8.412z"/></svg>