<svg class="icon" viewBox="0 0 1024 1024" xmlns="http://www.w3.org/2000/svg" width="24" height="24"><defs><style/></defs><path d="M896 972.8H76.8C34.458 972.8 0 938.342 0 896V793.6a25.6 25.6 0 0151.2 0V896a25.6 25.6 0 0025.6 25.6H896a25.6 25.6 0 0025.6-25.6V793.6a25.6 25.6 0 0151.2 0V896c0 42.342-34.458 76.8-76.8 76.8z"/><path d="M760.525 442.675l-256-256a25.6 25.6 0 00-36.199 0l-256 256a25.6 25.6 0 0036.199 36.199L460.8 266.598V793.6a25.6 25.6 0 0051.2 0V266.598l212.275 212.276a25.498 25.498 0 0036.25 0 25.6 25.6 0 000-36.199z"/></svg>